<?xml version="1.0" encoding="UTF-8"?>
<svg id="Layer_1" xmlns="http://www.w3.org/2000/svg" version="1.1" viewBox="0 0 450 125.2">
  <defs>
    <style>
      .st0 {
        fill: #ffffff;
      }
    </style>
  </defs>
  <path class="st0" d="M376.7,125.2c-2.4,0-4.4-.9-5.7-2.6-1.3-1.8-1.7-4.2-.9-6.7l4.5-15.5c1.5-5.1,6.9-9.3,12-9.3h10c1.2,0,2.2-.8,2.6-1.9l1.7-6c.2-.8,0-1.7-.4-2.3-.5-.7-1.3-1.1-2.1-1.1h-21.9c-.1,0-.2,0-.4,0h-7.4c-2.4,0-4.4-.9-5.7-2.6-1.3-1.8-1.7-4.2-.9-6.7l.9-3c.2-.8,0-1.7-.4-2.3-.5-.7-1.3-1.1-2.1-1.1h-2.8c-1.2,0-2.2.8-2.6,1.9l-1.3,4.5c-1.5,5.1-6.9,9.3-12,9.3h-10c-1.2,0-2.2.8-2.6,1.9l-2.8,9.8s0,.1,0,.2l-4,14s0,.1,0,.2l-2.9,10.1c-1.5,5.1-6.9,9.3-12,9.3h-15.5c-2.4,0-4.4-.9-5.7-2.6-1.3-1.8-1.7-4.2-.9-6.7l13-45.2s0-.1,0-.2l.9-3.2c.2-.8,0-1.7-.4-2.3-.5-.7-1.3-1.1-2.1-1.1h-2.8c-1.2,0-2.2.8-2.6,1.9l-5.7,19.6s0,.1,0,.2l-2.1,7.4c-1.5,5.1-6.9,9.3-12,9.3h-15.5c-2.4,0-4.4-.9-5.7-2.6-1.3-1.8-1.7-4.2-.9-6.7l9.4-32.8c.2-.8,0-1.7-.4-2.3-.5-.7-1.3-1.1-2.1-1.1h-2.8c-1.2,0-2.2.8-2.6,1.9l-4,14s0,.1,0,.2l-5.8,20.1c-1.5,5.1-6.9,9.3-12,9.3h-15.5c-2.4,0-4.4-.9-5.7-2.6-1.3-1.8-1.7-4.2-.9-6.7l4.5-15.5s0-.1,0-.2l4.9-17.1c.2-.8,0-1.7-.4-2.3-.5-.7-1.3-1.1-2.1-1.1h-2.8c-1.2,0-2.2.8-2.6,1.9l-.4,1.4s0,.1,0,.2l-9.1,31.4s0,.1,0,.2l-.3,1.1c-1.5,5.1-6.9,9.3-12,9.3h-15.5c-2.4,0-4.4-.9-5.7-2.6-1.3-1.8-1.7-4.2-.9-6.7l.9-3c.2-.8,0-1.7-.4-2.3-.5-.7-1.3-1.1-2.1-1.1h-2.8c-1.2,0-2.2.8-2.6,1.9l-1.3,4.5c-1.5,5.1-6.9,9.3-12,9.3h-10.1c-1.2,0-2.2.8-2.6,1.9l-3.3,11.5c-1.5,5.1-6.9,9.3-12,9.3h-15.5c-2.4,0-4.4-.9-5.7-2.6-1.3-1.8-1.7-4.2-.9-6.7l2.9-10c.2-.8,0-1.7-.4-2.3-.5-.7-1.3-1.1-2.1-1.1h-8.3c-2.4,0-4.4-.9-5.7-2.6-1.3-1.8-1.7-4.2-.9-6.7l.9-3c.2-.8,0-1.7-.4-2.3-.5-.7-1.3-1.1-2.1-1.1h-2.8c-1.2,0-2.2.8-2.6,1.9l-1.3,4.5c-1.5,5.1-6.9,9.3-12,9.3h-21.3s-15.6,0-15.6,0c-2.4,0-4.4-.9-5.7-2.6-1.3-1.8-1.7-4.2-.9-6.7l2.9-10.1c.2-.8,0-1.7-.4-2.3-.5-.7-1.3-1.1-2.1-1.1H7c-2.4,0-4.4-.9-5.7-2.6-1.3-1.8-1.7-4.2-.9-6.7l7.7-26.9s0-.1,0-.2l2.5-8.7c0,0,0-.1,0-.2l.7-2.3c1.5-5.1,6.9-9.3,12-9.3h10c1.2,0,2.2-.8,2.6-1.9l3.3-11.5C40.7,4.2,46,0,51.2,0h21.3S88,0,88,0c2.4,0,4.4.9,5.7,2.6,1.3,1.8,1.7,4.2.9,6.7l-4.5,15.5c-1.5,5.1-6.9,9.3-12,9.3h-21.3s-9.9,0-9.9,0c-1.2,0-2.2.8-2.6,1.9l-4.4,15.3s0,.1,0,.2l-3.8,13.3c-.2.8,0,1.7.4,2.3.5.7,1.3,1.1,2.1,1.1s14.1,0,14.1,0h15.5c2.4,0,4.4.9,5.7,2.6,1.3,1.8,1.7,4.2.9,6.7l-.9,3.1c-.2.8,0,1.7.4,2.3.5.7,1.3,1.1,2.1,1.1h2.8c1.2,0,2.2-.8,2.6-1.9l1.7-5.8s6.2-21.5,6.2-21.5c1.5-5.1,6.9-9.3,12-9.3h9.9c1.2,0,2.2-.8,2.6-1.9l3.3-11.5c1.5-5.1,6.9-9.3,12-9.3h15.5c2.4,0,4.4.9,5.7,2.6,1.3,1.8,1.7,4.2.9,6.7l-2.9,10c-.2.8,0,1.7.4,2.3.5.7,1.3,1.1,2.1,1.1h8.4c2.4,0,4.4.9,5.7,2.6,1.3,1.8,1.7,4.2.9,6.7l-7.4,25.9c-.2.8,0,1.7.4,2.3s1.3,1.1,2.1,1.1h2.8c1.2,0,2.2-.8,2.6-1.9l3.5-12.2s0-.1,0-.2l9.1-31.4s0-.1,0-.2l1.8-6.1c1.5-5.1,6.9-9.3,12-9.3h36.8c2.4,0,4.4.9,5.7,2.6,1.3,1.8,1.7,4.2.9,6.7l-2.9,10.1c-.2.8,0,1.7.4,2.3.5.7,1.3,1.1,2.1,1.1h2.9c1.2,0,2.2-.8,2.6-1.9l3.3-11.5c1.5-5.1,6.9-9.3,12-9.3h15.5c2.4,0,4.4.9,5.7,2.6,1.3,1.8,1.7,4.2.9,6.7l-2.9,10c-.2.8,0,1.7.4,2.3.5.7,1.3,1.1,2.1,1.1h8.3c2.4,0,4.4.9,5.7,2.6,1.3,1.8,1.7,4.2.9,6.7l-.9,3.1c-.2.8,0,1.7.4,2.3.5.7,1.3,1.1,2.1,1.1h2.8c1.2,0,2.2-.8,2.6-1.9l7.9-27.3c1.5-5.1,6.9-9.3,12-9.3h10c1.2,0,2.2-.8,2.6-1.9l3.3-11.5c1.5-5.1,6.9-9.3,12-9.3h15.5c2.4,0,4.4.9,5.7,2.6,1.3,1.8,1.7,4.2.9,6.7l-4.5,15.5c-1.5,5.1-6.9,9.3-12,9.3h-10c-1.2,0-2.2.8-2.6,1.9l-1.7,6c-.2.8,0,1.7.4,2.3.5.7,1.3,1.1,2.1,1.1h8.4c2.4,0,4.4.9,5.7,2.6,1.3,1.8,1.7,4.2.9,6.7l-.9,3.1c-.2.8,0,1.7.4,2.3.5.7,1.3,1.1,2.1,1.1h2.8c1.2,0,2.2-.8,2.6-1.9l7.9-27.3c1.5-5.1,6.9-9.3,12-9.3h15.5c2.4,0,4.4.9,5.7,2.6,1.3,1.8,1.7,4.2.9,6.7l-7,24.4s0,.1,0,.2l-.8,2.6c-.2.8,0,1.7.4,2.3.5.7,1.3,1.1,2.1,1.1h2.8c1.2,0,2.2-.8,2.6-1.9l8.3-28.6c1.5-5.1,6.9-9.3,12-9.3h15.5c2.4,0,4.4.9,5.7,2.6,1.3,1.8,1.7,4.2.9,6.7l-17.6,61.1c-1.5,5.1-6.9,9.3-12,9.3h-10c-1.2,0-2.2.8-2.6,1.9l-3.3,11.5c-1.5,5.1-6.9,9.3-12,9.3h-15.5ZM125.5,57c-1.2,0-2.2.8-2.6,1.9l-8.3,28.8c-.2.8,0,1.7.4,2.3.5.7,1.3,1.1,2.1,1.1h2.8c1.2,0,2.2-.8,2.6-1.9l8.3-28.8c.2-.8,0-1.7-.4-2.3-.5-.7-1.3-1.1-2.1-1.1h-2.8Z"/>
</svg>
